%TF.GenerationSoftware,KiCad,Pcbnew,8.0.0-8.0.0-1~ubuntu22.04.1*%
%TF.CreationDate,2024-03-16T22:32:17-06:00*%
%TF.ProjectId,Isolated_Current_Loop_Monitor,49736f6c-6174-4656-945f-43757272656e,rev?*%
%TF.SameCoordinates,Original*%
%TF.FileFunction,Legend,Top*%
%TF.FilePolarity,Positive*%
%FSLAX46Y46*%
G04 Gerber Fmt 4.6, Leading zero omitted, Abs format (unit mm)*
G04 Created by KiCad (PCBNEW 8.0.0-8.0.0-1~ubuntu22.04.1) date 2024-03-16 22:32:17*
%MOMM*%
%LPD*%
G01*
G04 APERTURE LIST*
%ADD10C,0.100000*%
%ADD11C,0.300000*%
%ADD12C,0.150000*%
%ADD13C,0.120000*%
%ADD14C,0.127000*%
%ADD15C,0.200000*%
G04 APERTURE END LIST*
D10*
X115494360Y-104634919D02*
X115684836Y-104634919D01*
X115684836Y-104634919D02*
X115780074Y-104682538D01*
X115780074Y-104682538D02*
X115875312Y-104777776D01*
X115875312Y-104777776D02*
X115922931Y-104968252D01*
X115922931Y-104968252D02*
X115922931Y-105301585D01*
X115922931Y-105301585D02*
X115875312Y-105492061D01*
X115875312Y-105492061D02*
X115780074Y-105587300D01*
X115780074Y-105587300D02*
X115684836Y-105634919D01*
X115684836Y-105634919D02*
X115494360Y-105634919D01*
X115494360Y-105634919D02*
X115399122Y-105587300D01*
X115399122Y-105587300D02*
X115303884Y-105492061D01*
X115303884Y-105492061D02*
X115256265Y-105301585D01*
X115256265Y-105301585D02*
X115256265Y-104968252D01*
X115256265Y-104968252D02*
X115303884Y-104777776D01*
X115303884Y-104777776D02*
X115399122Y-104682538D01*
X115399122Y-104682538D02*
X115494360Y-104634919D01*
X116922931Y-105539680D02*
X116875312Y-105587300D01*
X116875312Y-105587300D02*
X116732455Y-105634919D01*
X116732455Y-105634919D02*
X116637217Y-105634919D01*
X116637217Y-105634919D02*
X116494360Y-105587300D01*
X116494360Y-105587300D02*
X116399122Y-105492061D01*
X116399122Y-105492061D02*
X116351503Y-105396823D01*
X116351503Y-105396823D02*
X116303884Y-105206347D01*
X116303884Y-105206347D02*
X116303884Y-105063490D01*
X116303884Y-105063490D02*
X116351503Y-104873014D01*
X116351503Y-104873014D02*
X116399122Y-104777776D01*
X116399122Y-104777776D02*
X116494360Y-104682538D01*
X116494360Y-104682538D02*
X116637217Y-104634919D01*
X116637217Y-104634919D02*
X116732455Y-104634919D01*
X116732455Y-104634919D02*
X116875312Y-104682538D01*
X116875312Y-104682538D02*
X116922931Y-104730157D01*
X118303884Y-104634919D02*
X118494360Y-104634919D01*
X118494360Y-104634919D02*
X118589598Y-104682538D01*
X118589598Y-104682538D02*
X118684836Y-104777776D01*
X118684836Y-104777776D02*
X118732455Y-104968252D01*
X118732455Y-104968252D02*
X118732455Y-105301585D01*
X118732455Y-105301585D02*
X118684836Y-105492061D01*
X118684836Y-105492061D02*
X118589598Y-105587300D01*
X118589598Y-105587300D02*
X118494360Y-105634919D01*
X118494360Y-105634919D02*
X118303884Y-105634919D01*
X118303884Y-105634919D02*
X118208646Y-105587300D01*
X118208646Y-105587300D02*
X118113408Y-105492061D01*
X118113408Y-105492061D02*
X118065789Y-105301585D01*
X118065789Y-105301585D02*
X118065789Y-104968252D01*
X118065789Y-104968252D02*
X118113408Y-104777776D01*
X118113408Y-104777776D02*
X118208646Y-104682538D01*
X118208646Y-104682538D02*
X118303884Y-104634919D01*
X119589598Y-104968252D02*
X119589598Y-105634919D01*
X119161027Y-104968252D02*
X119161027Y-105492061D01*
X119161027Y-105492061D02*
X119208646Y-105587300D01*
X119208646Y-105587300D02*
X119303884Y-105634919D01*
X119303884Y-105634919D02*
X119446741Y-105634919D01*
X119446741Y-105634919D02*
X119541979Y-105587300D01*
X119541979Y-105587300D02*
X119589598Y-105539680D01*
X119922932Y-104968252D02*
X120303884Y-104968252D01*
X120065789Y-104634919D02*
X120065789Y-105492061D01*
X120065789Y-105492061D02*
X120113408Y-105587300D01*
X120113408Y-105587300D02*
X120208646Y-105634919D01*
X120208646Y-105634919D02*
X120303884Y-105634919D01*
X120637218Y-104968252D02*
X120637218Y-105968252D01*
X120637218Y-105015871D02*
X120732456Y-104968252D01*
X120732456Y-104968252D02*
X120922932Y-104968252D01*
X120922932Y-104968252D02*
X121018170Y-105015871D01*
X121018170Y-105015871D02*
X121065789Y-105063490D01*
X121065789Y-105063490D02*
X121113408Y-105158728D01*
X121113408Y-105158728D02*
X121113408Y-105444442D01*
X121113408Y-105444442D02*
X121065789Y-105539680D01*
X121065789Y-105539680D02*
X121018170Y-105587300D01*
X121018170Y-105587300D02*
X120922932Y-105634919D01*
X120922932Y-105634919D02*
X120732456Y-105634919D01*
X120732456Y-105634919D02*
X120637218Y-105587300D01*
X121970551Y-104968252D02*
X121970551Y-105634919D01*
X121541980Y-104968252D02*
X121541980Y-105492061D01*
X121541980Y-105492061D02*
X121589599Y-105587300D01*
X121589599Y-105587300D02*
X121684837Y-105634919D01*
X121684837Y-105634919D02*
X121827694Y-105634919D01*
X121827694Y-105634919D02*
X121922932Y-105587300D01*
X121922932Y-105587300D02*
X121970551Y-105539680D01*
X122303885Y-104968252D02*
X122684837Y-104968252D01*
X122446742Y-104634919D02*
X122446742Y-105492061D01*
X122446742Y-105492061D02*
X122494361Y-105587300D01*
X122494361Y-105587300D02*
X122589599Y-105634919D01*
X122589599Y-105634919D02*
X122684837Y-105634919D01*
X119270193Y-82634919D02*
X118698765Y-82634919D01*
X118984479Y-82634919D02*
X118984479Y-81634919D01*
X118984479Y-81634919D02*
X118889241Y-81777776D01*
X118889241Y-81777776D02*
X118794003Y-81873014D01*
X118794003Y-81873014D02*
X118698765Y-81920633D01*
X119651146Y-81730157D02*
X119698765Y-81682538D01*
X119698765Y-81682538D02*
X119794003Y-81634919D01*
X119794003Y-81634919D02*
X120032098Y-81634919D01*
X120032098Y-81634919D02*
X120127336Y-81682538D01*
X120127336Y-81682538D02*
X120174955Y-81730157D01*
X120174955Y-81730157D02*
X120222574Y-81825395D01*
X120222574Y-81825395D02*
X120222574Y-81920633D01*
X120222574Y-81920633D02*
X120174955Y-82063490D01*
X120174955Y-82063490D02*
X119603527Y-82634919D01*
X119603527Y-82634919D02*
X120222574Y-82634919D01*
X120508289Y-81634919D02*
X120841622Y-82634919D01*
X120841622Y-82634919D02*
X121174955Y-81634919D01*
X122270194Y-82634919D02*
X122270194Y-81634919D01*
X122270194Y-81634919D02*
X122651146Y-81634919D01*
X122651146Y-81634919D02*
X122746384Y-81682538D01*
X122746384Y-81682538D02*
X122794003Y-81730157D01*
X122794003Y-81730157D02*
X122841622Y-81825395D01*
X122841622Y-81825395D02*
X122841622Y-81968252D01*
X122841622Y-81968252D02*
X122794003Y-82063490D01*
X122794003Y-82063490D02*
X122746384Y-82111109D01*
X122746384Y-82111109D02*
X122651146Y-82158728D01*
X122651146Y-82158728D02*
X122270194Y-82158728D01*
X123413051Y-82634919D02*
X123317813Y-82587300D01*
X123317813Y-82587300D02*
X123270194Y-82539680D01*
X123270194Y-82539680D02*
X123222575Y-82444442D01*
X123222575Y-82444442D02*
X123222575Y-82158728D01*
X123222575Y-82158728D02*
X123270194Y-82063490D01*
X123270194Y-82063490D02*
X123317813Y-82015871D01*
X123317813Y-82015871D02*
X123413051Y-81968252D01*
X123413051Y-81968252D02*
X123555908Y-81968252D01*
X123555908Y-81968252D02*
X123651146Y-82015871D01*
X123651146Y-82015871D02*
X123698765Y-82063490D01*
X123698765Y-82063490D02*
X123746384Y-82158728D01*
X123746384Y-82158728D02*
X123746384Y-82444442D01*
X123746384Y-82444442D02*
X123698765Y-82539680D01*
X123698765Y-82539680D02*
X123651146Y-82587300D01*
X123651146Y-82587300D02*
X123555908Y-82634919D01*
X123555908Y-82634919D02*
X123413051Y-82634919D01*
X124079718Y-81968252D02*
X124270194Y-82634919D01*
X124270194Y-82634919D02*
X124460670Y-82158728D01*
X124460670Y-82158728D02*
X124651146Y-82634919D01*
X124651146Y-82634919D02*
X124841622Y-81968252D01*
X125603527Y-82587300D02*
X125508289Y-82634919D01*
X125508289Y-82634919D02*
X125317813Y-82634919D01*
X125317813Y-82634919D02*
X125222575Y-82587300D01*
X125222575Y-82587300D02*
X125174956Y-82492061D01*
X125174956Y-82492061D02*
X125174956Y-82111109D01*
X125174956Y-82111109D02*
X125222575Y-82015871D01*
X125222575Y-82015871D02*
X125317813Y-81968252D01*
X125317813Y-81968252D02*
X125508289Y-81968252D01*
X125508289Y-81968252D02*
X125603527Y-82015871D01*
X125603527Y-82015871D02*
X125651146Y-82111109D01*
X125651146Y-82111109D02*
X125651146Y-82206347D01*
X125651146Y-82206347D02*
X125174956Y-82301585D01*
X126079718Y-82634919D02*
X126079718Y-81968252D01*
X126079718Y-82158728D02*
X126127337Y-82063490D01*
X126127337Y-82063490D02*
X126174956Y-82015871D01*
X126174956Y-82015871D02*
X126270194Y-81968252D01*
X126270194Y-81968252D02*
X126365432Y-81968252D01*
D11*
X125539510Y-115910912D02*
X125539510Y-114410912D01*
X126182368Y-115839484D02*
X126325225Y-115910912D01*
X126325225Y-115910912D02*
X126610939Y-115910912D01*
X126610939Y-115910912D02*
X126753796Y-115839484D01*
X126753796Y-115839484D02*
X126825225Y-115696626D01*
X126825225Y-115696626D02*
X126825225Y-115625198D01*
X126825225Y-115625198D02*
X126753796Y-115482341D01*
X126753796Y-115482341D02*
X126610939Y-115410912D01*
X126610939Y-115410912D02*
X126396654Y-115410912D01*
X126396654Y-115410912D02*
X126253796Y-115339484D01*
X126253796Y-115339484D02*
X126182368Y-115196626D01*
X126182368Y-115196626D02*
X126182368Y-115125198D01*
X126182368Y-115125198D02*
X126253796Y-114982341D01*
X126253796Y-114982341D02*
X126396654Y-114910912D01*
X126396654Y-114910912D02*
X126610939Y-114910912D01*
X126610939Y-114910912D02*
X126753796Y-114982341D01*
X127682368Y-115910912D02*
X127539511Y-115839484D01*
X127539511Y-115839484D02*
X127468082Y-115768055D01*
X127468082Y-115768055D02*
X127396654Y-115625198D01*
X127396654Y-115625198D02*
X127396654Y-115196626D01*
X127396654Y-115196626D02*
X127468082Y-115053769D01*
X127468082Y-115053769D02*
X127539511Y-114982341D01*
X127539511Y-114982341D02*
X127682368Y-114910912D01*
X127682368Y-114910912D02*
X127896654Y-114910912D01*
X127896654Y-114910912D02*
X128039511Y-114982341D01*
X128039511Y-114982341D02*
X128110940Y-115053769D01*
X128110940Y-115053769D02*
X128182368Y-115196626D01*
X128182368Y-115196626D02*
X128182368Y-115625198D01*
X128182368Y-115625198D02*
X128110940Y-115768055D01*
X128110940Y-115768055D02*
X128039511Y-115839484D01*
X128039511Y-115839484D02*
X127896654Y-115910912D01*
X127896654Y-115910912D02*
X127682368Y-115910912D01*
X129039511Y-115910912D02*
X128896654Y-115839484D01*
X128896654Y-115839484D02*
X128825225Y-115696626D01*
X128825225Y-115696626D02*
X128825225Y-114410912D01*
X130253797Y-115910912D02*
X130253797Y-115125198D01*
X130253797Y-115125198D02*
X130182368Y-114982341D01*
X130182368Y-114982341D02*
X130039511Y-114910912D01*
X130039511Y-114910912D02*
X129753797Y-114910912D01*
X129753797Y-114910912D02*
X129610939Y-114982341D01*
X130253797Y-115839484D02*
X130110939Y-115910912D01*
X130110939Y-115910912D02*
X129753797Y-115910912D01*
X129753797Y-115910912D02*
X129610939Y-115839484D01*
X129610939Y-115839484D02*
X129539511Y-115696626D01*
X129539511Y-115696626D02*
X129539511Y-115553769D01*
X129539511Y-115553769D02*
X129610939Y-115410912D01*
X129610939Y-115410912D02*
X129753797Y-115339484D01*
X129753797Y-115339484D02*
X130110939Y-115339484D01*
X130110939Y-115339484D02*
X130253797Y-115268055D01*
X130753797Y-114910912D02*
X131325225Y-114910912D01*
X130968082Y-114410912D02*
X130968082Y-115696626D01*
X130968082Y-115696626D02*
X131039511Y-115839484D01*
X131039511Y-115839484D02*
X131182368Y-115910912D01*
X131182368Y-115910912D02*
X131325225Y-115910912D01*
X132396654Y-115839484D02*
X132253797Y-115910912D01*
X132253797Y-115910912D02*
X131968083Y-115910912D01*
X131968083Y-115910912D02*
X131825225Y-115839484D01*
X131825225Y-115839484D02*
X131753797Y-115696626D01*
X131753797Y-115696626D02*
X131753797Y-115125198D01*
X131753797Y-115125198D02*
X131825225Y-114982341D01*
X131825225Y-114982341D02*
X131968083Y-114910912D01*
X131968083Y-114910912D02*
X132253797Y-114910912D01*
X132253797Y-114910912D02*
X132396654Y-114982341D01*
X132396654Y-114982341D02*
X132468083Y-115125198D01*
X132468083Y-115125198D02*
X132468083Y-115268055D01*
X132468083Y-115268055D02*
X131753797Y-115410912D01*
X133753797Y-115910912D02*
X133753797Y-114410912D01*
X133753797Y-115839484D02*
X133610939Y-115910912D01*
X133610939Y-115910912D02*
X133325225Y-115910912D01*
X133325225Y-115910912D02*
X133182368Y-115839484D01*
X133182368Y-115839484D02*
X133110939Y-115768055D01*
X133110939Y-115768055D02*
X133039511Y-115625198D01*
X133039511Y-115625198D02*
X133039511Y-115196626D01*
X133039511Y-115196626D02*
X133110939Y-115053769D01*
X133110939Y-115053769D02*
X133182368Y-114982341D01*
X133182368Y-114982341D02*
X133325225Y-114910912D01*
X133325225Y-114910912D02*
X133610939Y-114910912D01*
X133610939Y-114910912D02*
X133753797Y-114982341D01*
X136468082Y-115768055D02*
X136396654Y-115839484D01*
X136396654Y-115839484D02*
X136182368Y-115910912D01*
X136182368Y-115910912D02*
X136039511Y-115910912D01*
X136039511Y-115910912D02*
X135825225Y-115839484D01*
X135825225Y-115839484D02*
X135682368Y-115696626D01*
X135682368Y-115696626D02*
X135610939Y-115553769D01*
X135610939Y-115553769D02*
X135539511Y-115268055D01*
X135539511Y-115268055D02*
X135539511Y-115053769D01*
X135539511Y-115053769D02*
X135610939Y-114768055D01*
X135610939Y-114768055D02*
X135682368Y-114625198D01*
X135682368Y-114625198D02*
X135825225Y-114482341D01*
X135825225Y-114482341D02*
X136039511Y-114410912D01*
X136039511Y-114410912D02*
X136182368Y-114410912D01*
X136182368Y-114410912D02*
X136396654Y-114482341D01*
X136396654Y-114482341D02*
X136468082Y-114553769D01*
X137753797Y-114910912D02*
X137753797Y-115910912D01*
X137110939Y-114910912D02*
X137110939Y-115696626D01*
X137110939Y-115696626D02*
X137182368Y-115839484D01*
X137182368Y-115839484D02*
X137325225Y-115910912D01*
X137325225Y-115910912D02*
X137539511Y-115910912D01*
X137539511Y-115910912D02*
X137682368Y-115839484D01*
X137682368Y-115839484D02*
X137753797Y-115768055D01*
X138468082Y-115910912D02*
X138468082Y-114910912D01*
X138468082Y-115196626D02*
X138539511Y-115053769D01*
X138539511Y-115053769D02*
X138610940Y-114982341D01*
X138610940Y-114982341D02*
X138753797Y-114910912D01*
X138753797Y-114910912D02*
X138896654Y-114910912D01*
X139396653Y-115910912D02*
X139396653Y-114910912D01*
X139396653Y-115196626D02*
X139468082Y-115053769D01*
X139468082Y-115053769D02*
X139539511Y-114982341D01*
X139539511Y-114982341D02*
X139682368Y-114910912D01*
X139682368Y-114910912D02*
X139825225Y-114910912D01*
X140896653Y-115839484D02*
X140753796Y-115910912D01*
X140753796Y-115910912D02*
X140468082Y-115910912D01*
X140468082Y-115910912D02*
X140325224Y-115839484D01*
X140325224Y-115839484D02*
X140253796Y-115696626D01*
X140253796Y-115696626D02*
X140253796Y-115125198D01*
X140253796Y-115125198D02*
X140325224Y-114982341D01*
X140325224Y-114982341D02*
X140468082Y-114910912D01*
X140468082Y-114910912D02*
X140753796Y-114910912D01*
X140753796Y-114910912D02*
X140896653Y-114982341D01*
X140896653Y-114982341D02*
X140968082Y-115125198D01*
X140968082Y-115125198D02*
X140968082Y-115268055D01*
X140968082Y-115268055D02*
X140253796Y-115410912D01*
X141610938Y-114910912D02*
X141610938Y-115910912D01*
X141610938Y-115053769D02*
X141682367Y-114982341D01*
X141682367Y-114982341D02*
X141825224Y-114910912D01*
X141825224Y-114910912D02*
X142039510Y-114910912D01*
X142039510Y-114910912D02*
X142182367Y-114982341D01*
X142182367Y-114982341D02*
X142253796Y-115125198D01*
X142253796Y-115125198D02*
X142253796Y-115910912D01*
X142753796Y-114910912D02*
X143325224Y-114910912D01*
X142968081Y-114410912D02*
X142968081Y-115696626D01*
X142968081Y-115696626D02*
X143039510Y-115839484D01*
X143039510Y-115839484D02*
X143182367Y-115910912D01*
X143182367Y-115910912D02*
X143325224Y-115910912D01*
X126253796Y-118325828D02*
X125539510Y-118325828D01*
X125539510Y-118325828D02*
X125539510Y-116825828D01*
X126968082Y-118325828D02*
X126825225Y-118254400D01*
X126825225Y-118254400D02*
X126753796Y-118182971D01*
X126753796Y-118182971D02*
X126682368Y-118040114D01*
X126682368Y-118040114D02*
X126682368Y-117611542D01*
X126682368Y-117611542D02*
X126753796Y-117468685D01*
X126753796Y-117468685D02*
X126825225Y-117397257D01*
X126825225Y-117397257D02*
X126968082Y-117325828D01*
X126968082Y-117325828D02*
X127182368Y-117325828D01*
X127182368Y-117325828D02*
X127325225Y-117397257D01*
X127325225Y-117397257D02*
X127396654Y-117468685D01*
X127396654Y-117468685D02*
X127468082Y-117611542D01*
X127468082Y-117611542D02*
X127468082Y-118040114D01*
X127468082Y-118040114D02*
X127396654Y-118182971D01*
X127396654Y-118182971D02*
X127325225Y-118254400D01*
X127325225Y-118254400D02*
X127182368Y-118325828D01*
X127182368Y-118325828D02*
X126968082Y-118325828D01*
X128325225Y-118325828D02*
X128182368Y-118254400D01*
X128182368Y-118254400D02*
X128110939Y-118182971D01*
X128110939Y-118182971D02*
X128039511Y-118040114D01*
X128039511Y-118040114D02*
X128039511Y-117611542D01*
X128039511Y-117611542D02*
X128110939Y-117468685D01*
X128110939Y-117468685D02*
X128182368Y-117397257D01*
X128182368Y-117397257D02*
X128325225Y-117325828D01*
X128325225Y-117325828D02*
X128539511Y-117325828D01*
X128539511Y-117325828D02*
X128682368Y-117397257D01*
X128682368Y-117397257D02*
X128753797Y-117468685D01*
X128753797Y-117468685D02*
X128825225Y-117611542D01*
X128825225Y-117611542D02*
X128825225Y-118040114D01*
X128825225Y-118040114D02*
X128753797Y-118182971D01*
X128753797Y-118182971D02*
X128682368Y-118254400D01*
X128682368Y-118254400D02*
X128539511Y-118325828D01*
X128539511Y-118325828D02*
X128325225Y-118325828D01*
X129468082Y-117325828D02*
X129468082Y-118825828D01*
X129468082Y-117397257D02*
X129610940Y-117325828D01*
X129610940Y-117325828D02*
X129896654Y-117325828D01*
X129896654Y-117325828D02*
X130039511Y-117397257D01*
X130039511Y-117397257D02*
X130110940Y-117468685D01*
X130110940Y-117468685D02*
X130182368Y-117611542D01*
X130182368Y-117611542D02*
X130182368Y-118040114D01*
X130182368Y-118040114D02*
X130110940Y-118182971D01*
X130110940Y-118182971D02*
X130039511Y-118254400D01*
X130039511Y-118254400D02*
X129896654Y-118325828D01*
X129896654Y-118325828D02*
X129610940Y-118325828D01*
X129610940Y-118325828D02*
X129468082Y-118254400D01*
X131968082Y-118325828D02*
X131968082Y-116825828D01*
X131968082Y-116825828D02*
X132468082Y-117897257D01*
X132468082Y-117897257D02*
X132968082Y-116825828D01*
X132968082Y-116825828D02*
X132968082Y-118325828D01*
X133896654Y-118325828D02*
X133753797Y-118254400D01*
X133753797Y-118254400D02*
X133682368Y-118182971D01*
X133682368Y-118182971D02*
X133610940Y-118040114D01*
X133610940Y-118040114D02*
X133610940Y-117611542D01*
X133610940Y-117611542D02*
X133682368Y-117468685D01*
X133682368Y-117468685D02*
X133753797Y-117397257D01*
X133753797Y-117397257D02*
X133896654Y-117325828D01*
X133896654Y-117325828D02*
X134110940Y-117325828D01*
X134110940Y-117325828D02*
X134253797Y-117397257D01*
X134253797Y-117397257D02*
X134325226Y-117468685D01*
X134325226Y-117468685D02*
X134396654Y-117611542D01*
X134396654Y-117611542D02*
X134396654Y-118040114D01*
X134396654Y-118040114D02*
X134325226Y-118182971D01*
X134325226Y-118182971D02*
X134253797Y-118254400D01*
X134253797Y-118254400D02*
X134110940Y-118325828D01*
X134110940Y-118325828D02*
X133896654Y-118325828D01*
X135039511Y-117325828D02*
X135039511Y-118325828D01*
X135039511Y-117468685D02*
X135110940Y-117397257D01*
X135110940Y-117397257D02*
X135253797Y-117325828D01*
X135253797Y-117325828D02*
X135468083Y-117325828D01*
X135468083Y-117325828D02*
X135610940Y-117397257D01*
X135610940Y-117397257D02*
X135682369Y-117540114D01*
X135682369Y-117540114D02*
X135682369Y-118325828D01*
X136396654Y-118325828D02*
X136396654Y-117325828D01*
X136396654Y-116825828D02*
X136325226Y-116897257D01*
X136325226Y-116897257D02*
X136396654Y-116968685D01*
X136396654Y-116968685D02*
X136468083Y-116897257D01*
X136468083Y-116897257D02*
X136396654Y-116825828D01*
X136396654Y-116825828D02*
X136396654Y-116968685D01*
X136896655Y-117325828D02*
X137468083Y-117325828D01*
X137110940Y-116825828D02*
X137110940Y-118111542D01*
X137110940Y-118111542D02*
X137182369Y-118254400D01*
X137182369Y-118254400D02*
X137325226Y-118325828D01*
X137325226Y-118325828D02*
X137468083Y-118325828D01*
X138182369Y-118325828D02*
X138039512Y-118254400D01*
X138039512Y-118254400D02*
X137968083Y-118182971D01*
X137968083Y-118182971D02*
X137896655Y-118040114D01*
X137896655Y-118040114D02*
X137896655Y-117611542D01*
X137896655Y-117611542D02*
X137968083Y-117468685D01*
X137968083Y-117468685D02*
X138039512Y-117397257D01*
X138039512Y-117397257D02*
X138182369Y-117325828D01*
X138182369Y-117325828D02*
X138396655Y-117325828D01*
X138396655Y-117325828D02*
X138539512Y-117397257D01*
X138539512Y-117397257D02*
X138610941Y-117468685D01*
X138610941Y-117468685D02*
X138682369Y-117611542D01*
X138682369Y-117611542D02*
X138682369Y-118040114D01*
X138682369Y-118040114D02*
X138610941Y-118182971D01*
X138610941Y-118182971D02*
X138539512Y-118254400D01*
X138539512Y-118254400D02*
X138396655Y-118325828D01*
X138396655Y-118325828D02*
X138182369Y-118325828D01*
X139325226Y-118325828D02*
X139325226Y-117325828D01*
X139325226Y-117611542D02*
X139396655Y-117468685D01*
X139396655Y-117468685D02*
X139468084Y-117397257D01*
X139468084Y-117397257D02*
X139610941Y-117325828D01*
X139610941Y-117325828D02*
X139753798Y-117325828D01*
D10*
X145324800Y-80743734D02*
X145372419Y-80600877D01*
X145372419Y-80600877D02*
X145372419Y-80362782D01*
X145372419Y-80362782D02*
X145324800Y-80267544D01*
X145324800Y-80267544D02*
X145277180Y-80219925D01*
X145277180Y-80219925D02*
X145181942Y-80172306D01*
X145181942Y-80172306D02*
X145086704Y-80172306D01*
X145086704Y-80172306D02*
X144991466Y-80219925D01*
X144991466Y-80219925D02*
X144943847Y-80267544D01*
X144943847Y-80267544D02*
X144896228Y-80362782D01*
X144896228Y-80362782D02*
X144848609Y-80553258D01*
X144848609Y-80553258D02*
X144800990Y-80648496D01*
X144800990Y-80648496D02*
X144753371Y-80696115D01*
X144753371Y-80696115D02*
X144658133Y-80743734D01*
X144658133Y-80743734D02*
X144562895Y-80743734D01*
X144562895Y-80743734D02*
X144467657Y-80696115D01*
X144467657Y-80696115D02*
X144420038Y-80648496D01*
X144420038Y-80648496D02*
X144372419Y-80553258D01*
X144372419Y-80553258D02*
X144372419Y-80315163D01*
X144372419Y-80315163D02*
X144420038Y-80172306D01*
X144705752Y-79838972D02*
X145372419Y-79648496D01*
X145372419Y-79648496D02*
X144896228Y-79458020D01*
X144896228Y-79458020D02*
X145372419Y-79267544D01*
X145372419Y-79267544D02*
X144705752Y-79077068D01*
X145372419Y-78696115D02*
X144705752Y-78696115D01*
X144372419Y-78696115D02*
X144420038Y-78743734D01*
X144420038Y-78743734D02*
X144467657Y-78696115D01*
X144467657Y-78696115D02*
X144420038Y-78648496D01*
X144420038Y-78648496D02*
X144372419Y-78696115D01*
X144372419Y-78696115D02*
X144467657Y-78696115D01*
X144705752Y-78362782D02*
X144705752Y-77981830D01*
X144372419Y-78219925D02*
X145229561Y-78219925D01*
X145229561Y-78219925D02*
X145324800Y-78172306D01*
X145324800Y-78172306D02*
X145372419Y-78077068D01*
X145372419Y-78077068D02*
X145372419Y-77981830D01*
X145324800Y-77219925D02*
X145372419Y-77315163D01*
X145372419Y-77315163D02*
X145372419Y-77505639D01*
X145372419Y-77505639D02*
X145324800Y-77600877D01*
X145324800Y-77600877D02*
X145277180Y-77648496D01*
X145277180Y-77648496D02*
X145181942Y-77696115D01*
X145181942Y-77696115D02*
X144896228Y-77696115D01*
X144896228Y-77696115D02*
X144800990Y-77648496D01*
X144800990Y-77648496D02*
X144753371Y-77600877D01*
X144753371Y-77600877D02*
X144705752Y-77505639D01*
X144705752Y-77505639D02*
X144705752Y-77315163D01*
X144705752Y-77315163D02*
X144753371Y-77219925D01*
X145372419Y-76791353D02*
X144372419Y-76791353D01*
X145372419Y-76362782D02*
X144848609Y-76362782D01*
X144848609Y-76362782D02*
X144753371Y-76410401D01*
X144753371Y-76410401D02*
X144705752Y-76505639D01*
X144705752Y-76505639D02*
X144705752Y-76648496D01*
X144705752Y-76648496D02*
X144753371Y-76743734D01*
X144753371Y-76743734D02*
X144800990Y-76791353D01*
D12*
X128333333Y-98959580D02*
X128285714Y-99007200D01*
X128285714Y-99007200D02*
X128142857Y-99054819D01*
X128142857Y-99054819D02*
X128047619Y-99054819D01*
X128047619Y-99054819D02*
X127904762Y-99007200D01*
X127904762Y-99007200D02*
X127809524Y-98911961D01*
X127809524Y-98911961D02*
X127761905Y-98816723D01*
X127761905Y-98816723D02*
X127714286Y-98626247D01*
X127714286Y-98626247D02*
X127714286Y-98483390D01*
X127714286Y-98483390D02*
X127761905Y-98292914D01*
X127761905Y-98292914D02*
X127809524Y-98197676D01*
X127809524Y-98197676D02*
X127904762Y-98102438D01*
X127904762Y-98102438D02*
X128047619Y-98054819D01*
X128047619Y-98054819D02*
X128142857Y-98054819D01*
X128142857Y-98054819D02*
X128285714Y-98102438D01*
X128285714Y-98102438D02*
X128333333Y-98150057D01*
X128714286Y-98150057D02*
X128761905Y-98102438D01*
X128761905Y-98102438D02*
X128857143Y-98054819D01*
X128857143Y-98054819D02*
X129095238Y-98054819D01*
X129095238Y-98054819D02*
X129190476Y-98102438D01*
X129190476Y-98102438D02*
X129238095Y-98150057D01*
X129238095Y-98150057D02*
X129285714Y-98245295D01*
X129285714Y-98245295D02*
X129285714Y-98340533D01*
X129285714Y-98340533D02*
X129238095Y-98483390D01*
X129238095Y-98483390D02*
X128666667Y-99054819D01*
X128666667Y-99054819D02*
X129285714Y-99054819D01*
X138128095Y-111284819D02*
X138128095Y-112094342D01*
X138128095Y-112094342D02*
X138175714Y-112189580D01*
X138175714Y-112189580D02*
X138223333Y-112237200D01*
X138223333Y-112237200D02*
X138318571Y-112284819D01*
X138318571Y-112284819D02*
X138509047Y-112284819D01*
X138509047Y-112284819D02*
X138604285Y-112237200D01*
X138604285Y-112237200D02*
X138651904Y-112189580D01*
X138651904Y-112189580D02*
X138699523Y-112094342D01*
X138699523Y-112094342D02*
X138699523Y-111284819D01*
X139699523Y-112284819D02*
X139128095Y-112284819D01*
X139413809Y-112284819D02*
X139413809Y-111284819D01*
X139413809Y-111284819D02*
X139318571Y-111427676D01*
X139318571Y-111427676D02*
X139223333Y-111522914D01*
X139223333Y-111522914D02*
X139128095Y-111570533D01*
X146933334Y-98959579D02*
X146885715Y-99007199D01*
X146885715Y-99007199D02*
X146742858Y-99054818D01*
X146742858Y-99054818D02*
X146647620Y-99054818D01*
X146647620Y-99054818D02*
X146504763Y-99007199D01*
X146504763Y-99007199D02*
X146409525Y-98911960D01*
X146409525Y-98911960D02*
X146361906Y-98816722D01*
X146361906Y-98816722D02*
X146314287Y-98626246D01*
X146314287Y-98626246D02*
X146314287Y-98483389D01*
X146314287Y-98483389D02*
X146361906Y-98292913D01*
X146361906Y-98292913D02*
X146409525Y-98197675D01*
X146409525Y-98197675D02*
X146504763Y-98102437D01*
X146504763Y-98102437D02*
X146647620Y-98054818D01*
X146647620Y-98054818D02*
X146742858Y-98054818D01*
X146742858Y-98054818D02*
X146885715Y-98102437D01*
X146885715Y-98102437D02*
X146933334Y-98150056D01*
X147885715Y-99054818D02*
X147314287Y-99054818D01*
X147600001Y-99054818D02*
X147600001Y-98054818D01*
X147600001Y-98054818D02*
X147504763Y-98197675D01*
X147504763Y-98197675D02*
X147409525Y-98292913D01*
X147409525Y-98292913D02*
X147314287Y-98340532D01*
X115666666Y-88454819D02*
X115666666Y-89169104D01*
X115666666Y-89169104D02*
X115619047Y-89311961D01*
X115619047Y-89311961D02*
X115523809Y-89407200D01*
X115523809Y-89407200D02*
X115380952Y-89454819D01*
X115380952Y-89454819D02*
X115285714Y-89454819D01*
X116666666Y-89454819D02*
X116095238Y-89454819D01*
X116380952Y-89454819D02*
X116380952Y-88454819D01*
X116380952Y-88454819D02*
X116285714Y-88597676D01*
X116285714Y-88597676D02*
X116190476Y-88692914D01*
X116190476Y-88692914D02*
X116095238Y-88740533D01*
X131785714Y-82454819D02*
X131785714Y-81454819D01*
X131785714Y-81454819D02*
X132166666Y-81454819D01*
X132166666Y-81454819D02*
X132261904Y-81502438D01*
X132261904Y-81502438D02*
X132309523Y-81550057D01*
X132309523Y-81550057D02*
X132357142Y-81645295D01*
X132357142Y-81645295D02*
X132357142Y-81788152D01*
X132357142Y-81788152D02*
X132309523Y-81883390D01*
X132309523Y-81883390D02*
X132261904Y-81931009D01*
X132261904Y-81931009D02*
X132166666Y-81978628D01*
X132166666Y-81978628D02*
X131785714Y-81978628D01*
X132738095Y-82407200D02*
X132880952Y-82454819D01*
X132880952Y-82454819D02*
X133119047Y-82454819D01*
X133119047Y-82454819D02*
X133214285Y-82407200D01*
X133214285Y-82407200D02*
X133261904Y-82359580D01*
X133261904Y-82359580D02*
X133309523Y-82264342D01*
X133309523Y-82264342D02*
X133309523Y-82169104D01*
X133309523Y-82169104D02*
X133261904Y-82073866D01*
X133261904Y-82073866D02*
X133214285Y-82026247D01*
X133214285Y-82026247D02*
X133119047Y-81978628D01*
X133119047Y-81978628D02*
X132928571Y-81931009D01*
X132928571Y-81931009D02*
X132833333Y-81883390D01*
X132833333Y-81883390D02*
X132785714Y-81835771D01*
X132785714Y-81835771D02*
X132738095Y-81740533D01*
X132738095Y-81740533D02*
X132738095Y-81645295D01*
X132738095Y-81645295D02*
X132785714Y-81550057D01*
X132785714Y-81550057D02*
X132833333Y-81502438D01*
X132833333Y-81502438D02*
X132928571Y-81454819D01*
X132928571Y-81454819D02*
X133166666Y-81454819D01*
X133166666Y-81454819D02*
X133309523Y-81502438D01*
X134261904Y-82454819D02*
X133690476Y-82454819D01*
X133976190Y-82454819D02*
X133976190Y-81454819D01*
X133976190Y-81454819D02*
X133880952Y-81597676D01*
X133880952Y-81597676D02*
X133785714Y-81692914D01*
X133785714Y-81692914D02*
X133690476Y-81740533D01*
X128666666Y-108454819D02*
X128666666Y-109169104D01*
X128666666Y-109169104D02*
X128619047Y-109311961D01*
X128619047Y-109311961D02*
X128523809Y-109407200D01*
X128523809Y-109407200D02*
X128380952Y-109454819D01*
X128380952Y-109454819D02*
X128285714Y-109454819D01*
X129047619Y-108454819D02*
X129666666Y-108454819D01*
X129666666Y-108454819D02*
X129333333Y-108835771D01*
X129333333Y-108835771D02*
X129476190Y-108835771D01*
X129476190Y-108835771D02*
X129571428Y-108883390D01*
X129571428Y-108883390D02*
X129619047Y-108931009D01*
X129619047Y-108931009D02*
X129666666Y-109026247D01*
X129666666Y-109026247D02*
X129666666Y-109264342D01*
X129666666Y-109264342D02*
X129619047Y-109359580D01*
X129619047Y-109359580D02*
X129571428Y-109407200D01*
X129571428Y-109407200D02*
X129476190Y-109454819D01*
X129476190Y-109454819D02*
X129190476Y-109454819D01*
X129190476Y-109454819D02*
X129095238Y-109407200D01*
X129095238Y-109407200D02*
X129047619Y-109359580D01*
X148238095Y-112254819D02*
X148238095Y-111254819D01*
X148238095Y-111731009D02*
X148809523Y-111731009D01*
X148809523Y-112254819D02*
X148809523Y-111254819D01*
X149714285Y-111588152D02*
X149714285Y-112254819D01*
X149476190Y-111207200D02*
X149238095Y-111921485D01*
X149238095Y-111921485D02*
X149857142Y-111921485D01*
X142238095Y-82454819D02*
X142238095Y-81454819D01*
X142238095Y-81931009D02*
X142809523Y-81931009D01*
X142809523Y-82454819D02*
X142809523Y-81454819D01*
X143190476Y-81454819D02*
X143809523Y-81454819D01*
X143809523Y-81454819D02*
X143476190Y-81835771D01*
X143476190Y-81835771D02*
X143619047Y-81835771D01*
X143619047Y-81835771D02*
X143714285Y-81883390D01*
X143714285Y-81883390D02*
X143761904Y-81931009D01*
X143761904Y-81931009D02*
X143809523Y-82026247D01*
X143809523Y-82026247D02*
X143809523Y-82264342D01*
X143809523Y-82264342D02*
X143761904Y-82359580D01*
X143761904Y-82359580D02*
X143714285Y-82407200D01*
X143714285Y-82407200D02*
X143619047Y-82454819D01*
X143619047Y-82454819D02*
X143333333Y-82454819D01*
X143333333Y-82454819D02*
X143238095Y-82407200D01*
X143238095Y-82407200D02*
X143190476Y-82359580D01*
X120261905Y-90984819D02*
X120261905Y-89984819D01*
X120261905Y-89984819D02*
X120500000Y-89984819D01*
X120500000Y-89984819D02*
X120642857Y-90032438D01*
X120642857Y-90032438D02*
X120738095Y-90127676D01*
X120738095Y-90127676D02*
X120785714Y-90222914D01*
X120785714Y-90222914D02*
X120833333Y-90413390D01*
X120833333Y-90413390D02*
X120833333Y-90556247D01*
X120833333Y-90556247D02*
X120785714Y-90746723D01*
X120785714Y-90746723D02*
X120738095Y-90841961D01*
X120738095Y-90841961D02*
X120642857Y-90937200D01*
X120642857Y-90937200D02*
X120500000Y-90984819D01*
X120500000Y-90984819D02*
X120261905Y-90984819D01*
X121214286Y-90080057D02*
X121261905Y-90032438D01*
X121261905Y-90032438D02*
X121357143Y-89984819D01*
X121357143Y-89984819D02*
X121595238Y-89984819D01*
X121595238Y-89984819D02*
X121690476Y-90032438D01*
X121690476Y-90032438D02*
X121738095Y-90080057D01*
X121738095Y-90080057D02*
X121785714Y-90175295D01*
X121785714Y-90175295D02*
X121785714Y-90270533D01*
X121785714Y-90270533D02*
X121738095Y-90413390D01*
X121738095Y-90413390D02*
X121166667Y-90984819D01*
X121166667Y-90984819D02*
X121785714Y-90984819D01*
X115658095Y-91354819D02*
X115658095Y-90354819D01*
X116229523Y-91354819D02*
X115800952Y-90783390D01*
X116229523Y-90354819D02*
X115658095Y-90926247D01*
X151264819Y-88333333D02*
X151979104Y-88333333D01*
X151979104Y-88333333D02*
X152121961Y-88380952D01*
X152121961Y-88380952D02*
X152217200Y-88476190D01*
X152217200Y-88476190D02*
X152264819Y-88619047D01*
X152264819Y-88619047D02*
X152264819Y-88714285D01*
X151360057Y-87904761D02*
X151312438Y-87857142D01*
X151312438Y-87857142D02*
X151264819Y-87761904D01*
X151264819Y-87761904D02*
X151264819Y-87523809D01*
X151264819Y-87523809D02*
X151312438Y-87428571D01*
X151312438Y-87428571D02*
X151360057Y-87380952D01*
X151360057Y-87380952D02*
X151455295Y-87333333D01*
X151455295Y-87333333D02*
X151550533Y-87333333D01*
X151550533Y-87333333D02*
X151693390Y-87380952D01*
X151693390Y-87380952D02*
X152264819Y-87952380D01*
X152264819Y-87952380D02*
X152264819Y-87333333D01*
X121238095Y-116454819D02*
X121238095Y-115454819D01*
X121238095Y-115931009D02*
X121809523Y-115931009D01*
X121809523Y-116454819D02*
X121809523Y-115454819D01*
X122238095Y-115550057D02*
X122285714Y-115502438D01*
X122285714Y-115502438D02*
X122380952Y-115454819D01*
X122380952Y-115454819D02*
X122619047Y-115454819D01*
X122619047Y-115454819D02*
X122714285Y-115502438D01*
X122714285Y-115502438D02*
X122761904Y-115550057D01*
X122761904Y-115550057D02*
X122809523Y-115645295D01*
X122809523Y-115645295D02*
X122809523Y-115740533D01*
X122809523Y-115740533D02*
X122761904Y-115883390D01*
X122761904Y-115883390D02*
X122190476Y-116454819D01*
X122190476Y-116454819D02*
X122809523Y-116454819D01*
X131833333Y-102664819D02*
X131500000Y-102188628D01*
X131261905Y-102664819D02*
X131261905Y-101664819D01*
X131261905Y-101664819D02*
X131642857Y-101664819D01*
X131642857Y-101664819D02*
X131738095Y-101712438D01*
X131738095Y-101712438D02*
X131785714Y-101760057D01*
X131785714Y-101760057D02*
X131833333Y-101855295D01*
X131833333Y-101855295D02*
X131833333Y-101998152D01*
X131833333Y-101998152D02*
X131785714Y-102093390D01*
X131785714Y-102093390D02*
X131738095Y-102141009D01*
X131738095Y-102141009D02*
X131642857Y-102188628D01*
X131642857Y-102188628D02*
X131261905Y-102188628D01*
X132214286Y-101760057D02*
X132261905Y-101712438D01*
X132261905Y-101712438D02*
X132357143Y-101664819D01*
X132357143Y-101664819D02*
X132595238Y-101664819D01*
X132595238Y-101664819D02*
X132690476Y-101712438D01*
X132690476Y-101712438D02*
X132738095Y-101760057D01*
X132738095Y-101760057D02*
X132785714Y-101855295D01*
X132785714Y-101855295D02*
X132785714Y-101950533D01*
X132785714Y-101950533D02*
X132738095Y-102093390D01*
X132738095Y-102093390D02*
X132166667Y-102664819D01*
X132166667Y-102664819D02*
X132785714Y-102664819D01*
X121238095Y-78454819D02*
X121238095Y-77454819D01*
X121238095Y-77931009D02*
X121809523Y-77931009D01*
X121809523Y-78454819D02*
X121809523Y-77454819D01*
X122809523Y-78454819D02*
X122238095Y-78454819D01*
X122523809Y-78454819D02*
X122523809Y-77454819D01*
X122523809Y-77454819D02*
X122428571Y-77597676D01*
X122428571Y-77597676D02*
X122333333Y-77692914D01*
X122333333Y-77692914D02*
X122238095Y-77740533D01*
X150433334Y-101754818D02*
X150100001Y-101278627D01*
X149861906Y-101754818D02*
X149861906Y-100754818D01*
X149861906Y-100754818D02*
X150242858Y-100754818D01*
X150242858Y-100754818D02*
X150338096Y-100802437D01*
X150338096Y-100802437D02*
X150385715Y-100850056D01*
X150385715Y-100850056D02*
X150433334Y-100945294D01*
X150433334Y-100945294D02*
X150433334Y-101088151D01*
X150433334Y-101088151D02*
X150385715Y-101183389D01*
X150385715Y-101183389D02*
X150338096Y-101231008D01*
X150338096Y-101231008D02*
X150242858Y-101278627D01*
X150242858Y-101278627D02*
X149861906Y-101278627D01*
X151385715Y-101754818D02*
X150814287Y-101754818D01*
X151100001Y-101754818D02*
X151100001Y-100754818D01*
X151100001Y-100754818D02*
X151004763Y-100897675D01*
X151004763Y-100897675D02*
X150909525Y-100992913D01*
X150909525Y-100992913D02*
X150814287Y-101040532D01*
D13*
%TO.C,C2*%
X129980000Y-97675000D02*
X129980000Y-97230000D01*
X129980000Y-99970000D02*
X129980000Y-99525000D01*
X136220000Y-97230000D02*
X129980000Y-97230000D01*
X136220000Y-97675000D02*
X136220000Y-97230000D01*
X136220000Y-99970000D02*
X129980000Y-99970000D01*
X136220000Y-99970000D02*
X136220000Y-99525000D01*
%TO.C,U1*%
X136240000Y-100550000D02*
X136240000Y-110830000D01*
X136240000Y-110830000D02*
X137890000Y-110830000D01*
X139890000Y-110830000D02*
X141540000Y-110830000D01*
X141540000Y-100550000D02*
X136240000Y-100550000D01*
X141540000Y-110830000D02*
X141540000Y-100550000D01*
X137890000Y-110830000D02*
G75*
G02*
X139890000Y-110830000I1000000J0D01*
G01*
%TO.C,C1*%
X145630000Y-91180000D02*
X145630000Y-97420000D01*
X146075000Y-91180000D02*
X145630000Y-91180000D01*
X146075000Y-97420000D02*
X145630000Y-97420000D01*
X148370000Y-91180000D02*
X147925000Y-91180000D01*
X148370000Y-91180000D02*
X148370000Y-97420000D01*
X148370000Y-97420000D02*
X147925000Y-97420000D01*
D14*
%TO.C,J1*%
X114910000Y-84075000D02*
X124820000Y-84075000D01*
X114910000Y-87925000D02*
X114910000Y-84075000D01*
X123510000Y-88900000D02*
X124110000Y-88900000D01*
X123810000Y-88400000D02*
X123510000Y-88900000D01*
X124110000Y-88900000D02*
X123810000Y-88400000D01*
X124820000Y-84075000D02*
X124820000Y-84800000D01*
X124820000Y-87925000D02*
X114910000Y-87925000D01*
X124820000Y-87925000D02*
X124820000Y-87200000D01*
%TO.C,PS1*%
X131112500Y-85462500D02*
X131112500Y-93962500D01*
X131112500Y-93962500D02*
X133072500Y-93962500D01*
X133072500Y-85462500D02*
X131112500Y-85462500D01*
X142352500Y-85462500D02*
X144312500Y-85462500D01*
X144312500Y-85462500D02*
X144312500Y-93962500D01*
X144312500Y-93962500D02*
X142352500Y-93962500D01*
D15*
X133312500Y-96462500D02*
G75*
G02*
X133112500Y-96462500I-100000J0D01*
G01*
X133112500Y-96462500D02*
G75*
G02*
X133312500Y-96462500I100000J0D01*
G01*
D14*
%TO.C,J3*%
X115100000Y-107075000D02*
X125010000Y-107075000D01*
X115100000Y-110925000D02*
X115100000Y-107075000D01*
X123700000Y-111900000D02*
X124300000Y-111900000D01*
X124000000Y-111400000D02*
X123700000Y-111900000D01*
X124300000Y-111900000D02*
X124000000Y-111400000D01*
X125010000Y-107075000D02*
X125010000Y-107800000D01*
X125010000Y-110925000D02*
X115100000Y-110925000D01*
X125010000Y-110925000D02*
X125010000Y-110200000D01*
D13*
%TO.C,D2*%
X117260000Y-93000000D02*
X118280000Y-93000000D01*
X118280000Y-91530000D02*
X118280000Y-94470000D01*
X118280000Y-94470000D02*
X123720000Y-94470000D01*
X119060000Y-91530000D02*
X119060000Y-94470000D01*
X119180000Y-91530000D02*
X119180000Y-94470000D01*
X119300000Y-91530000D02*
X119300000Y-94470000D01*
X123720000Y-91530000D02*
X118280000Y-91530000D01*
X123720000Y-94470000D02*
X123720000Y-91530000D01*
X124740000Y-93000000D02*
X123720000Y-93000000D01*
D14*
%TO.C,J2*%
X145910000Y-85510000D02*
X145910000Y-86110000D01*
X145910000Y-86110000D02*
X146410000Y-85810000D01*
X146410000Y-85810000D02*
X145910000Y-85510000D01*
X146885000Y-76910000D02*
X150735000Y-76910000D01*
X146885000Y-86820000D02*
X146885000Y-76910000D01*
X146885000Y-86820000D02*
X147610000Y-86820000D01*
X150735000Y-76910000D02*
X150735000Y-86820000D01*
X150735000Y-86820000D02*
X150010000Y-86820000D01*
D13*
%TO.C,R2*%
X130630000Y-104940000D02*
X130960000Y-104940000D01*
X130630000Y-111480000D02*
X130630000Y-104940000D01*
X130960000Y-111480000D02*
X130630000Y-111480000D01*
X133040000Y-111480000D02*
X133370000Y-111480000D01*
X133370000Y-104940000D02*
X133040000Y-104940000D01*
X133370000Y-111480000D02*
X133370000Y-104940000D01*
%TO.C,R1*%
X149130000Y-92330000D02*
X149130000Y-98870000D01*
X149130000Y-98870000D02*
X149460000Y-98870000D01*
X149460000Y-92330000D02*
X149130000Y-92330000D01*
X151540000Y-92330000D02*
X151870000Y-92330000D01*
X151870000Y-92330000D02*
X151870000Y-98870000D01*
X151870000Y-98870000D02*
X151540000Y-98870000D01*
%TD*%
M02*
