%TF.GenerationSoftware,KiCad,Pcbnew,8.0.0-8.0.0-1~ubuntu22.04.1*%
%TF.CreationDate,2024-03-16T22:32:17-06:00*%
%TF.ProjectId,Isolated_Current_Loop_Monitor,49736f6c-6174-4656-945f-43757272656e,rev?*%
%TF.SameCoordinates,Original*%
%TF.FileFunction,Soldermask,Top*%
%TF.FilePolarity,Negative*%
%FSLAX46Y46*%
G04 Gerber Fmt 4.6, Leading zero omitted, Abs format (unit mm)*
G04 Created by KiCad (PCBNEW 8.0.0-8.0.0-1~ubuntu22.04.1) date 2024-03-16 22:32:17*
%MOMM*%
%LPD*%
G01*
G04 APERTURE LIST*
G04 Aperture macros list*
%AMRoundRect*
0 Rectangle with rounded corners*
0 $1 Rounding radius*
0 $2 $3 $4 $5 $6 $7 $8 $9 X,Y pos of 4 corners*
0 Add a 4 corners polygon primitive as box body*
4,1,4,$2,$3,$4,$5,$6,$7,$8,$9,$2,$3,0*
0 Add four circle primitives for the rounded corners*
1,1,$1+$1,$2,$3*
1,1,$1+$1,$4,$5*
1,1,$1+$1,$6,$7*
1,1,$1+$1,$8,$9*
0 Add four rect primitives between the rounded corners*
20,1,$1+$1,$2,$3,$4,$5,0*
20,1,$1+$1,$4,$5,$6,$7,0*
20,1,$1+$1,$6,$7,$8,$9,0*
20,1,$1+$1,$8,$9,$2,$3,0*%
G04 Aperture macros list end*
%ADD10C,1.576200*%
%ADD11C,0.836200*%
%ADD12C,0.010000*%
%ADD13C,1.600000*%
%ADD14R,1.600000X1.600000*%
%ADD15O,1.600000X1.600000*%
%ADD16C,3.000000*%
%ADD17RoundRect,0.102000X0.500000X-1.050000X0.500000X1.050000X-0.500000X1.050000X-0.500000X-1.050000X0*%
%ADD18C,3.200000*%
%ADD19R,2.200000X2.200000*%
%ADD20O,2.200000X2.200000*%
%ADD21C,0.800000*%
%ADD22C,6.400000*%
G04 APERTURE END LIST*
D10*
%TO.C,J1*%
X120298100Y-86000000D02*
G75*
G02*
X118721900Y-86000000I-788100J0D01*
G01*
X118721900Y-86000000D02*
G75*
G02*
X120298100Y-86000000I788100J0D01*
G01*
D11*
X127228100Y-86000000D02*
G75*
G02*
X126391900Y-86000000I-418100J0D01*
G01*
X126391900Y-86000000D02*
G75*
G02*
X127228100Y-86000000I418100J0D01*
G01*
D12*
X124646200Y-86836200D02*
X122973800Y-86836200D01*
X122973800Y-85163800D01*
X124646200Y-85163800D01*
X124646200Y-86836200D01*
G36*
X124646200Y-86836200D02*
G01*
X122973800Y-86836200D01*
X122973800Y-85163800D01*
X124646200Y-85163800D01*
X124646200Y-86836200D01*
G37*
D10*
%TO.C,J3*%
X120488100Y-109000000D02*
G75*
G02*
X118911900Y-109000000I-788100J0D01*
G01*
X118911900Y-109000000D02*
G75*
G02*
X120488100Y-109000000I788100J0D01*
G01*
D11*
X127418100Y-109000000D02*
G75*
G02*
X126581900Y-109000000I-418100J0D01*
G01*
X126581900Y-109000000D02*
G75*
G02*
X127418100Y-109000000I418100J0D01*
G01*
D12*
X124836200Y-109836200D02*
X123163800Y-109836200D01*
X123163800Y-108163800D01*
X124836200Y-108163800D01*
X124836200Y-109836200D01*
G36*
X124836200Y-109836200D02*
G01*
X123163800Y-109836200D01*
X123163800Y-108163800D01*
X124836200Y-108163800D01*
X124836200Y-109836200D01*
G37*
D10*
%TO.C,J2*%
X149598100Y-81510000D02*
G75*
G02*
X148021900Y-81510000I-788100J0D01*
G01*
X148021900Y-81510000D02*
G75*
G02*
X149598100Y-81510000I788100J0D01*
G01*
D11*
X149228100Y-88810000D02*
G75*
G02*
X148391900Y-88810000I-418100J0D01*
G01*
X148391900Y-88810000D02*
G75*
G02*
X149228100Y-88810000I418100J0D01*
G01*
D12*
X149646200Y-86646200D02*
X147973800Y-86646200D01*
X147973800Y-84973800D01*
X149646200Y-84973800D01*
X149646200Y-86646200D01*
G36*
X149646200Y-86646200D02*
G01*
X147973800Y-86646200D01*
X147973800Y-84973800D01*
X149646200Y-84973800D01*
X149646200Y-86646200D01*
G37*
%TD*%
D13*
%TO.C,C2*%
X135600000Y-98600000D03*
X130600000Y-98600000D03*
%TD*%
D14*
%TO.C,U1*%
X142700000Y-109500000D03*
D15*
X142700000Y-106960000D03*
X142700000Y-104420000D03*
X142700000Y-101880000D03*
X135080000Y-101880000D03*
X135080000Y-104420000D03*
X135080000Y-106960000D03*
X135080000Y-109500000D03*
%TD*%
D13*
%TO.C,C1*%
X147000000Y-91800000D03*
X147000000Y-96800000D03*
%TD*%
D16*
%TO.C,J1*%
X119510000Y-86000000D03*
%TD*%
D17*
%TO.C,PS1*%
X133902500Y-94762500D03*
X136442500Y-94762500D03*
X141522500Y-94762500D03*
X141522500Y-84662500D03*
X133902500Y-84662500D03*
%TD*%
D16*
%TO.C,J3*%
X119700000Y-109000000D03*
%TD*%
D18*
%TO.C,H4*%
X149000000Y-116000000D03*
%TD*%
%TO.C,H3*%
X140000000Y-78000000D03*
%TD*%
D19*
%TO.C,D2*%
X115920000Y-93000000D03*
D20*
X126080000Y-93000000D03*
%TD*%
D16*
%TO.C,J2*%
X148810000Y-81510000D03*
%TD*%
D21*
%TO.C,H2*%
X114600000Y-116000000D03*
X115302944Y-114302944D03*
X115302944Y-117697056D03*
X117000000Y-113600000D03*
D22*
X117000000Y-116000000D03*
D21*
X117000000Y-118400000D03*
X118697056Y-114302944D03*
X118697056Y-117697056D03*
X119400000Y-116000000D03*
%TD*%
D13*
%TO.C,R2*%
X132000000Y-112020000D03*
D15*
X132000000Y-104400000D03*
%TD*%
D21*
%TO.C,H1*%
X114600000Y-78000000D03*
X115302944Y-76302944D03*
X115302944Y-79697056D03*
X117000000Y-75600000D03*
D22*
X117000000Y-78000000D03*
D21*
X117000000Y-80400000D03*
X118697056Y-76302944D03*
X118697056Y-79697056D03*
X119400000Y-78000000D03*
%TD*%
D13*
%TO.C,R1*%
X150500000Y-91790000D03*
D15*
X150500000Y-99410000D03*
%TD*%
M02*
